<svg width="32" height="32" viewBox="0 0 32 32" fill="none" xmlns="http://www.w3.org/2000/svg">
<path d="M2.66253 12.7796C2.80406 12.7804 2.9401 12.7249 3.04059 12.6252L5.17054 10.4952C5.37934 10.2864 5.37934 9.94792 5.17054 9.73912C4.96174 9.53032 4.62321 9.53032 4.41441 9.73912L2.28446 11.8691C2.18366 11.969 2.12695 12.1051 2.12695 12.2471C2.12695 12.3891 2.18366 12.5252 2.28446 12.6252C2.38495 12.7249 2.52099 12.7804 2.66253 12.7796Z" fill="#0B132A"/>
<path d="M2.66253 15.9745C2.80406 15.9753 2.9401 15.9198 3.04059 15.8201L8.36545 10.4952C8.57425 10.2864 8.57425 9.94792 8.36545 9.73912C8.15665 9.53032 7.81812 9.53032 7.60932 9.73912L2.28446 15.064C2.18366 15.164 2.12695 15.3001 2.12695 15.442C2.12695 15.584 2.18366 15.7201 2.28446 15.8201C2.38495 15.9198 2.52099 15.9753 2.66253 15.9745Z" fill="#0B132A"/>
<path d="M30.3517 0H16.5071C15.6248 0 14.9096 0.715206 14.9096 1.59746V7.4548H2.66243C1.19201 7.4548 0 8.64681 0 10.1172V23.9619C0 25.4323 1.19201 26.6243 2.66243 26.6243H8.51977V28.7542H6.92232C6.04006 28.7542 5.32486 29.4694 5.32486 30.3517C5.32486 31.2339 6.04006 31.9492 6.92232 31.9492H30.3517C31.2339 31.9492 31.9492 31.2339 31.9492 30.3517V1.59746C31.9492 0.715206 31.2339 0 30.3517 0ZM2.66243 8.51977H21.8319C22.7142 8.51977 23.4294 9.23498 23.4294 10.1172V22.8969H1.06497V10.1172C1.06497 9.23498 1.78018 8.51977 2.66243 8.51977ZM1.06497 23.9619H23.4294C23.4294 24.8441 22.7142 25.5593 21.8319 25.5593H2.66243C1.78018 25.5593 1.06497 24.8441 1.06497 23.9619ZM9.58475 26.6243H14.9096V28.7542H9.58475V26.6243ZM16.5071 30.8842H6.92232C6.62823 30.8842 6.38983 30.6458 6.38983 30.3517C6.38983 30.0576 6.62823 29.8192 6.92232 29.8192H17.572C17.8661 29.8192 18.1045 30.0576 18.1045 30.3517C18.1045 30.6458 17.8661 30.8842 17.572 30.8842H16.5071ZM30.8842 30.3517C30.8842 30.6458 30.6458 30.8842 30.3517 30.8842H19.0736C19.2462 30.396 19.1715 29.8544 18.8732 29.4312C18.5748 29.008 18.0898 28.7557 17.572 28.7542H15.9746V26.6243H21.8319C23.3023 26.6243 24.4943 25.4323 24.4943 23.9619V10.1172C24.4943 8.64681 23.3023 7.4548 21.8319 7.4548H15.9746V1.59746C15.9746 1.30337 16.213 1.06497 16.5071 1.06497H30.3517C30.6458 1.06497 30.8842 1.30337 30.8842 1.59746V30.3517Z" fill="#0B132A"/>
<path d="M28.7542 2.66248H18.1045C17.5164 2.66248 17.0396 3.13928 17.0396 3.72745V4.79242C17.0396 5.38059 17.5164 5.85739 18.1045 5.85739H28.7542C29.3424 5.85739 29.8192 5.38059 29.8192 4.79242V3.72745C29.8192 3.13928 29.3424 2.66248 28.7542 2.66248ZM18.1045 4.79242V3.72745H28.7542V4.79242H18.1045Z" fill="#0B132A"/>
<path d="M27.6893 10.6497C28.5715 10.6497 29.2867 9.93454 29.2867 9.05229C29.2867 8.17004 28.5715 7.45483 27.6893 7.45483C26.807 7.45483 26.0918 8.17004 26.0918 9.05229C26.0918 9.93454 26.807 10.6497 27.6893 10.6497ZM27.6893 8.51981C27.9833 8.51981 28.2217 8.75821 28.2217 9.05229C28.2217 9.34637 27.9833 9.58478 27.6893 9.58478C27.3952 9.58478 27.1568 9.34637 27.1568 9.05229C27.1568 8.75821 27.3952 8.51981 27.6893 8.51981Z" fill="#0B132A"/>
<path d="M29.2867 13.3122C29.2867 12.4299 28.5715 11.7147 27.6893 11.7147C26.807 11.7147 26.0918 12.4299 26.0918 13.3122C26.0918 14.1944 26.807 14.9096 27.6893 14.9096C28.5715 14.9096 29.2867 14.1944 29.2867 13.3122ZM27.6893 13.8447C27.3952 13.8447 27.1568 13.6063 27.1568 13.3122C27.1568 13.0181 27.3952 12.7797 27.6893 12.7797C27.9833 12.7797 28.2217 13.0181 28.2217 13.3122C28.2217 13.6063 27.9833 13.8447 27.6893 13.8447Z" fill="#0B132A"/>
<path d="M20.7671 27.6893C20.473 27.6893 20.2346 27.9277 20.2346 28.2218V29.2868C20.2346 29.5809 20.473 29.8193 20.7671 29.8193C21.0612 29.8193 21.2996 29.5809 21.2996 29.2868V28.2218C21.2996 27.9277 21.0612 27.6893 20.7671 27.6893Z" fill="#0B132A"/>
<path d="M22.897 27.6893C22.6029 27.6893 22.3645 27.9277 22.3645 28.2218V29.2868C22.3645 29.5809 22.6029 29.8193 22.897 29.8193C23.1911 29.8193 23.4295 29.5809 23.4295 29.2868V28.2218C23.4295 27.9277 23.1911 27.6893 22.897 27.6893Z" fill="#0B132A"/>
<path d="M25.0269 27.6893C24.7328 27.6893 24.4944 27.9277 24.4944 28.2218V29.2868C24.4944 29.5809 24.7328 29.8193 25.0269 29.8193C25.321 29.8193 25.5594 29.5809 25.5594 29.2868V28.2218C25.5594 27.9277 25.321 27.6893 25.0269 27.6893Z" fill="#0B132A"/>
<path d="M27.1568 27.6893C26.8627 27.6893 26.6243 27.9277 26.6243 28.2218V29.2868C26.6243 29.5809 26.8627 29.8193 27.1568 29.8193C27.4508 29.8193 27.6892 29.5809 27.6892 29.2868V28.2218C27.6892 27.9277 27.4508 27.6893 27.1568 27.6893Z" fill="#0B132A"/>
<path d="M29.2866 27.6893C28.9926 27.6893 28.7542 27.9277 28.7542 28.2218V29.2868C28.7542 29.5809 28.9926 29.8193 29.2866 29.8193C29.5807 29.8193 29.8191 29.5809 29.8191 29.2868V28.2218C29.8191 27.9277 29.5807 27.6893 29.2866 27.6893Z" fill="#0B132A"/>
</svg>
