<svg width="34" height="38" viewBox="0 0 34 38" fill="none" xmlns="http://www.w3.org/2000/svg">
<path d="M16.9999 22.8333C17.8256 22.8333 18.5438 22.5382 19.1251 21.9569M16.9999 22.8333V22.3333M16.9999 22.8333C17.0002 22.8333 17.0005 22.8333 17.0007 22.8333L16.9999 22.3333M16.9999 22.8333C16.1751 22.8344 15.4576 22.5397 14.8764 21.9585C14.2952 21.3773 14.0001 20.6595 13.9999 19.8341M19.1251 21.9569L16.9999 22.3333M19.1251 21.9569C19.7064 21.3756 20.0011 20.6581 19.9999 19.8333L19.1251 21.9569ZM16.9999 22.3333C16.3066 22.3344 15.7166 22.0916 15.2299 21.605C14.7433 21.1183 14.4999 20.5277 14.4999 19.8333M13.9999 19.8341L14.4999 19.8333M13.9999 19.8341C13.9999 19.8338 13.9999 19.8336 13.9999 19.8333H14.4999M13.9999 19.8341C13.9986 19.009 14.2933 18.2912 14.8747 17.7097C15.4559 17.1286 16.1737 16.8335 16.9991 16.8333C16.9994 16.8333 16.9997 16.8333 16.9999 16.8333V17.3333L14.4999 19.8333M0.833255 19.0006V19V3.99996C0.833255 3.21708 1.1064 2.55892 1.66681 1.99852C2.22719 1.43813 2.88461 1.16568 3.66598 1.16663H3.66659H30.3333C31.1161 1.16663 31.7743 1.43978 32.3347 2.00018C32.8951 2.56057 33.1675 3.21798 33.1666 3.99936V3.99996V19C33.1666 19.7828 32.8934 20.441 32.333 21.0014C31.7726 21.5618 31.1152 21.8342 30.3339 21.8333H30.3333H25.6067C25.6909 21.4617 25.7518 21.0894 25.7891 20.7164C25.8296 20.311 25.8423 19.9054 25.827 19.5H30.3333H30.8333V19V3.99996V3.49996H30.3333H3.66659H3.16659V3.99996V19V19.5H3.66659H8.17288C8.15758 19.9054 8.1702 20.311 8.21074 20.7164C8.24803 21.0894 8.30891 21.4617 8.39316 21.8333H3.66659C2.88371 21.8333 2.22554 21.5601 1.66514 20.9997C1.10476 20.4394 0.832306 19.7819 0.833255 19.0006ZM24.4999 6.16663L24.5007 6.16663C25.0623 6.16573 25.5244 6.35659 25.9164 6.74852C26.3083 7.14047 26.4999 7.60345 26.4999 8.16663L26.4999 8.16743C26.5008 8.72898 26.31 9.19115 25.918 9.58308C25.5261 9.97503 25.0631 10.1666 24.4999 10.1666L24.4991 10.1666C23.9376 10.1675 23.4754 9.97667 23.0835 9.58474C22.6915 9.19279 22.4999 8.72981 22.4999 8.16663L22.4999 8.16583C22.499 7.60428 22.6899 7.14211 23.0818 6.75018C23.4738 6.35823 23.9367 6.16663 24.4999 6.16663ZM5.83325 35.6678V35.6666V33.8333C5.83325 32.9602 6.07499 32.1518 6.56568 31.3977C7.05786 30.6412 7.70176 30.0791 8.50402 29.7026L8.50404 29.7026C9.83113 29.0797 11.2121 28.6123 12.6478 28.3002C14.0852 27.9878 15.5355 27.8322 16.9996 27.8333H16.9999C18.4641 27.8333 19.9146 27.9894 21.3521 28.3019C22.7878 28.614 24.1689 29.0808 25.4961 29.7027C26.2994 30.0793 26.9438 30.6414 27.4358 31.3977C27.9264 32.1516 28.1676 32.9598 28.1666 33.8327V33.8333V35.6666C28.1666 36.0132 28.055 36.2804 27.8341 36.502C27.6142 36.7227 27.3482 36.8341 27.0011 36.8333H26.9999H6.99992C6.65388 36.8333 6.38693 36.7215 6.16514 36.4997C5.94342 36.278 5.83244 36.012 5.83325 35.6678ZM8.16659 34V34.5H8.66659H25.3333H25.8333V34V33.8333C25.8333 33.3955 25.7034 32.9902 25.4512 32.6299C25.206 32.2796 24.8863 32.0127 24.4985 31.8364L24.4977 31.8361C23.3011 31.2948 22.0747 30.8811 20.8191 30.5957C19.5606 30.3097 18.2873 30.1666 16.9999 30.1666C15.7125 30.1666 14.4393 30.3097 13.1808 30.5957C11.9251 30.8811 10.6988 31.2948 9.50217 31.8361L9.50135 31.8364C9.1135 32.0127 8.79382 32.2796 8.54864 32.6299C8.29645 32.9902 8.16659 33.3955 8.16659 33.8333V34ZM8.66659 12.3333C8.58564 12.3333 8.51602 12.309 8.43681 12.2297L6.27014 10.0631C6.19093 9.98386 6.16659 9.91424 6.16659 9.8333C6.16659 9.75235 6.19093 9.68273 6.27014 9.60352L8.43681 7.43685C8.51602 7.35764 8.58564 7.33329 8.66659 7.33329C8.74753 7.33329 8.81716 7.35764 8.89637 7.43685L11.063 9.60352C11.1422 9.68273 11.1666 9.75235 11.1666 9.8333C11.1666 9.91424 11.1422 9.98386 11.063 10.0631L8.89637 12.2297C8.81716 12.309 8.74753 12.3333 8.66659 12.3333ZM16.9999 25.1666C15.5214 25.1666 14.2736 24.6498 13.2285 23.6047C12.1834 22.5597 11.6666 21.3118 11.6666 19.8333C11.6666 18.3547 12.1834 17.1069 13.2285 16.0618C14.2736 15.0168 15.5214 14.5 16.9999 14.5C18.4785 14.5 19.7263 15.0168 20.7714 16.0618C21.8165 17.1069 22.3333 18.3547 22.3333 19.8333C22.3333 21.3118 21.8165 22.5597 20.7714 23.6047C19.7263 24.6498 18.4785 25.1666 16.9999 25.1666Z" fill="#252B42" stroke="#252B42"/>
</svg>
