<svg width="34" height="30" viewBox="0 0 34 30" fill="none" xmlns="http://www.w3.org/2000/svg">
<path d="M25 10V9.5H24.5H7.625C7.26033 9.5 6.91059 9.35513 6.65273 9.09727C6.39487 8.83941 6.25 8.48967 6.25 8.125C6.25 7.76033 6.39487 7.41059 6.65273 7.15273C6.91059 6.89487 7.26033 6.75 7.625 6.75H26.375C26.7397 6.75 27.0894 6.89487 27.3473 7.15273C27.6051 7.41059 27.75 7.76033 27.75 8.125V21.875C27.75 22.2397 27.6051 22.5894 27.3473 22.8473C27.0894 23.1051 26.7397 23.25 26.375 23.25C26.0103 23.25 25.6606 23.1051 25.4027 22.8473C25.1449 22.5894 25 22.2397 25 21.875V10ZM19.0157 27.9285L19.0135 27.9217L19.011 27.9149C18.5839 26.729 17.8013 25.7038 16.77 24.9791C15.7387 24.2544 14.5089 23.8655 13.2484 23.8655C11.988 23.8655 10.7582 24.2544 9.72688 24.9791C8.69557 25.7038 7.91297 26.729 7.48583 27.9149L7.4834 27.9217L7.48115 27.9285C7.391 28.2034 7.21644 28.4428 6.98233 28.6128C6.74822 28.7827 6.46648 28.8745 6.1772 28.875H3.25C2.55381 28.875 1.88613 28.5984 1.39384 28.1062C0.901562 27.6139 0.625 26.9462 0.625 26.25V3.75C0.625 3.05381 0.901562 2.38613 1.39384 1.89384C1.88613 1.40156 2.55381 1.125 3.25 1.125H30.75C31.4462 1.125 32.1139 1.40156 32.6062 1.89384C33.0984 2.38613 33.375 3.05381 33.375 3.75V26.25C33.375 26.9462 33.0984 27.6139 32.6062 28.1062C32.1139 28.5984 31.4462 28.875 30.75 28.875H20.322C20.3219 28.875 20.3219 28.875 20.3219 28.875C20.0322 28.8749 19.75 28.7834 19.5155 28.6134C19.2809 28.4435 19.106 28.2038 19.0157 27.9285ZM30.625 4.375V3.875H30.125H3.875H3.375V4.375V25.625V26.125H3.875H4.95625H5.25724L5.39811 25.859C6.1448 24.4491 7.25663 23.2657 8.61732 22.4327L9.09921 22.1377L8.74775 21.6952C8.07507 20.8485 7.65482 19.8292 7.53525 18.7544C7.41568 17.6796 7.60164 16.5928 8.07177 15.6189C8.5419 14.645 9.27715 13.8234 10.1931 13.2485C11.109 12.6736 12.1686 12.3686 13.25 12.3686C14.3314 12.3686 15.391 12.6736 16.3069 13.2485C17.2228 13.8234 17.9581 14.645 18.4282 15.6189C18.8984 16.5928 19.0843 17.6796 18.9647 18.7544C18.8452 19.8292 18.4249 20.8485 17.7523 21.6952L17.4008 22.1377L17.8827 22.4327C19.2434 23.2657 20.3552 24.4491 21.1019 25.859L21.2428 26.125H21.5438H30.125H30.625V25.625V4.375ZM13.25 21.125C13.8433 21.125 14.4234 20.9491 14.9167 20.6194C15.4101 20.2898 15.7946 19.8212 16.0216 19.2731C16.2487 18.7249 16.3081 18.1217 16.1924 17.5397C16.0766 16.9578 15.7909 16.4232 15.3713 16.0037C14.9518 15.5841 14.4172 15.2984 13.8353 15.1826C13.2533 15.0669 12.6501 15.1263 12.1019 15.3534C11.5538 15.5804 11.0852 15.9649 10.7556 16.4583C10.4259 16.9516 10.25 17.5317 10.25 18.125C10.25 18.9207 10.5661 19.6837 11.1287 20.2463C11.6913 20.8089 12.4544 21.125 13.25 21.125Z" fill="#252B42" stroke="#252B42"/>
</svg>
