<svg width="40" height="37" viewBox="0 0 40 37" fill="none" xmlns="http://www.w3.org/2000/svg">
<path d="M7 27.5V28H7.5H9.5V29.5H5.5V5V4.5H5H2.5H2V5V32.5V33H2.5H9.5V34.5H0.5V3H5H5.5V2.5V0.5H12.5C13.5938 0.5 14.6405 0.667637 15.6427 1.00169C16.6423 1.33491 17.5759 1.83513 18.4446 2.50527L18.7522 2.74256L19.0582 2.50313C19.9128 1.83431 20.8388 1.33469 21.8378 1.00169C22.8394 0.667829 23.8926 0.5 25 0.5H32V2.5V3H32.5H37V17.7206L35.5 17.0409V5V4.5H35H32.5H32V5V15.4494L30.5 14.758V2.5V2H30H25C24.0179 2 23.0737 2.16622 22.1706 2.4997C21.2664 2.83355 20.4342 3.32672 19.6752 3.97535L19.5 4.12505V4.35547V15.9081L18 16.5878V4.35547V4.12457L17.8242 3.97485C17.0774 3.33868 16.2518 2.85259 15.349 2.51923C14.4473 2.1863 13.499 2.01383 12.5069 2.00005L12.5069 2H12.5H7.5H7V2.5V27.5ZM26.25 18.0492L38.792 23.7501L33.5235 26.1464L32.9657 26.4001L33.3261 26.8956L33.4773 27.1036C33.7204 27.4638 33.9056 27.8524 34.0335 28.2711C34.1702 28.7183 34.2757 29.1715 34.3502 29.6308C34.4246 30.0895 34.4682 30.5618 34.4806 31.048C34.4907 31.4388 34.4968 31.8136 34.499 32.1726L26.25 36.3155L18.0009 32.1725C18.0031 31.8007 18.0093 31.4128 18.0194 31.0086C18.0318 30.5127 18.0814 30.0093 18.1686 29.4982C18.2552 28.991 18.3783 28.5186 18.5367 28.08C18.6893 27.6574 18.9004 27.2643 19.1711 26.8995L19.5394 26.4031L18.977 26.1466L15.2074 24.4279L14.5 24.1053V24.8828V35.75H13V24.072L26.25 18.0492ZM26.4573 19.7794L26.25 19.6849L26.0427 19.7794L18.3278 23.295L17.3294 23.75L18.3278 24.205L26.0427 27.7206L26.25 27.8151L26.4573 27.7206L34.1722 24.205L35.1706 23.75L34.1722 23.295L26.4573 19.7794ZM26.0258 34.529L26.2503 34.6416L26.4747 34.5287L32.7247 31.3842L33.012 31.2396L32.9996 30.9183C32.9861 30.5662 32.9588 30.2426 32.9169 29.9488C32.8721 29.6354 32.79 29.3299 32.6713 29.0331C32.566 28.77 32.4607 28.5133 32.3554 28.263C32.2365 27.9807 32.0708 27.6804 31.8641 27.3636L31.6294 27.0037L31.2383 27.1816L26.25 29.4507L21.2617 27.1816L20.8629 27.0002L20.6307 27.3717C20.4284 27.6954 20.2618 27.9928 20.1341 28.2625C20.0107 28.5229 19.9008 28.784 19.8043 29.0459C19.6976 29.3354 19.6299 29.6381 19.5999 29.9526C19.5734 30.231 19.547 30.5541 19.5208 30.9214L19.497 31.2543L19.7954 31.404L26.0258 34.529Z" fill="#252B42" stroke="#252B42"/>
</svg>
