<svg width="34" height="30" viewBox="0 0 34 30" fill="none" xmlns="http://www.w3.org/2000/svg">
<path d="M29.1949 0H3.85593C1.72737 0.00242849 0.00242849 1.72737 0 3.85593V25.8898C0.00242849 28.0184 1.72737 29.7433 3.85593 29.7458H29.1949C31.3235 29.7433 33.0484 28.0184 33.0508 25.8898V3.85593C33.0484 1.72737 31.3235 0.00242849 29.1949 0ZM31.9492 25.8898C31.9473 27.4102 30.7153 28.6422 29.1949 28.6441H3.85593C2.33556 28.6422 1.10352 27.4102 1.10169 25.8898V3.85593C1.10352 2.33556 2.33556 1.10352 3.85593 1.10169H29.1949C30.7153 1.10352 31.9473 2.33556 31.9492 3.85593V25.8898Z" fill="#0B132A"/>
<path d="M29.1949 4.4068H3.85591C2.94324 4.4068 2.20337 5.14667 2.20337 6.05934V25.8899C2.20337 26.8025 2.94324 27.5424 3.85591 27.5424H29.1949C30.1076 27.5424 30.8474 26.8025 30.8474 25.8899V6.05934C30.8474 5.14667 30.1076 4.4068 29.1949 4.4068ZM16.5254 15.3488L10.5261 12.1187L16.5254 8.88849L22.5247 12.1187L16.5254 15.3488ZM23.1356 13.0408V19.5L17.0763 22.7643V16.3051L23.1356 13.0408ZM15.9746 16.3051V22.7643L9.91523 19.5V13.0408L15.9746 16.3051ZM3.30506 6.05934C3.30506 5.75512 3.55169 5.50849 3.85591 5.50849H15.9746V7.93222L9.10328 11.6339C9.09612 11.6378 9.08786 11.6394 9.0807 11.6438C8.91413 11.7439 8.81261 11.9243 8.81354 12.1187V16.7359L3.30506 19.4901V6.05934ZM29.7457 25.8899C29.7457 26.1941 29.4991 26.4407 29.1949 26.4407H3.85591C3.55169 26.4407 3.30506 26.1941 3.30506 25.8899V20.7218L8.81354 17.9676V19.8305C8.81364 20.0331 8.92492 20.2193 9.10328 20.3153L16.2643 24.1712C16.4273 24.259 16.6235 24.259 16.7865 24.1712L23.9475 20.3153C24.1259 20.2193 24.2372 20.0331 24.2373 19.8305V17.9676L29.7457 20.7218V25.8899ZM29.7457 19.4901L24.2373 16.7359V12.1187C24.2372 11.9249 24.1353 11.7454 23.969 11.646C23.9618 11.6416 23.9536 11.64 23.9464 11.6361L17.0763 7.93222V5.50849H29.1949C29.4991 5.50849 29.7457 5.75512 29.7457 6.05934V19.4901Z" fill="#0B132A"/>
<path d="M3.305 3.30506C3.60922 3.30506 3.85585 3.05844 3.85585 2.75422C3.85585 2.44999 3.60922 2.20337 3.305 2.20337C3.00077 2.20337 2.75415 2.44999 2.75415 2.75422C2.75415 3.05844 3.00077 3.30506 3.305 3.30506Z" fill="#0B132A"/>
<path d="M5.50837 3.30506C5.81259 3.30506 6.05921 3.05844 6.05921 2.75422C6.05921 2.44999 5.81259 2.20337 5.50837 2.20337C5.20414 2.20337 4.95752 2.44999 4.95752 2.75422C4.95752 3.05844 5.20414 3.30506 5.50837 3.30506Z" fill="#0B132A"/>
<path d="M7.71173 3.30506C8.01596 3.30506 8.26258 3.05844 8.26258 2.75422C8.26258 2.44999 8.01596 2.20337 7.71173 2.20337C7.40751 2.20337 7.16089 2.44999 7.16089 2.75422C7.16089 3.05844 7.40751 3.30506 7.71173 3.30506Z" fill="#0B132A"/>
<path d="M21.483 3.30506H29.1948C29.4991 3.30506 29.7457 3.05844 29.7457 2.75422C29.7457 2.44999 29.4991 2.20337 29.1948 2.20337H21.483C21.1788 2.20337 20.9321 2.44999 20.9321 2.75422C20.9321 3.05844 21.1788 3.30506 21.483 3.30506Z" fill="#0B132A"/>
</svg>
